<svg width="155" height="115" viewBox="0 0 155 115" fill="none" xmlns="http://www.w3.org/2000/svg">
<path d="M127.035 15.6447C126.995 15.5738 126.93 15.5182 126.85 15.4879C117.617 11.5694 107.873 8.77527 97.8634 7.17531C97.7724 7.15967 97.6785 7.17095 97.5949 7.20755C97.5113 7.24415 97.4423 7.30421 97.3977 7.37917C96.0709 9.60661 94.8665 11.8946 93.7891 14.2343C82.9988 12.7192 72.0231 12.7192 61.2328 14.2343C60.1482 11.8886 58.9245 9.6001 57.5673 7.37917C57.5207 7.30583 57.4514 7.24716 57.3683 7.2108C57.2851 7.17444 57.1921 7.16207 57.1013 7.17531C47.0902 8.77191 37.3461 11.5663 28.1144 15.4881C28.0353 15.5191 27.9687 15.572 27.9235 15.6396C9.46181 41.1419 4.40445 66.0173 6.88542 90.5846C6.8924 90.6448 6.9124 90.7031 6.94422 90.756C6.97605 90.8089 7.01906 90.8554 7.07069 90.8926C17.8208 98.2552 29.8449 103.875 42.6299 107.513C42.7199 107.538 42.8161 107.537 42.9054 107.509C42.9947 107.482 43.0729 107.431 43.1295 107.361C45.8754 103.905 48.3086 100.246 50.4041 96.4195C50.4329 96.367 50.4493 96.3094 50.4523 96.2506C50.4553 96.1918 50.4448 96.1331 50.4215 96.0783C50.3982 96.0235 50.3626 95.9739 50.3171 95.9328C50.2715 95.8917 50.2171 95.8599 50.1573 95.8397C46.3205 94.4817 42.606 92.8448 39.0486 90.9441C38.984 90.909 38.9298 90.8597 38.8906 90.8005C38.8515 90.7414 38.8287 90.6742 38.8243 90.605C38.8199 90.5358 38.8339 90.4667 38.8652 90.4037C38.8965 90.3407 38.9442 90.2858 39.0038 90.2438C39.7503 89.7265 40.4972 89.1884 41.2099 88.645C41.2732 88.5967 41.3499 88.5658 41.4312 88.5557C41.5125 88.5455 41.5952 88.5566 41.6701 88.5876C64.9755 98.426 90.2069 98.426 113.236 88.5876C113.312 88.5546 113.395 88.542 113.478 88.5512C113.56 88.5605 113.638 88.5912 113.702 88.6398C114.415 89.1833 115.162 89.7265 115.914 90.2438C115.974 90.2853 116.022 90.3399 116.054 90.4026C116.086 90.4654 116.1 90.5344 116.097 90.6037C116.093 90.6729 116.07 90.7401 116.032 90.7995C115.993 90.8589 115.939 90.9086 115.875 90.9441C112.326 92.8608 108.608 94.4967 104.761 95.8345C104.701 95.8556 104.647 95.888 104.602 95.9298C104.556 95.9716 104.521 96.0217 104.498 96.0769C104.475 96.1321 104.465 96.1912 104.469 96.2502C104.472 96.3092 104.489 96.3669 104.519 96.4195C106.649 100.224 109.079 103.879 111.788 107.355C111.843 107.426 111.921 107.48 112.01 107.508C112.1 107.536 112.197 107.538 112.287 107.512C125.095 103.887 137.14 98.2664 147.904 90.8926C147.956 90.8572 148 90.8119 148.032 90.7597C148.064 90.7074 148.083 90.6495 148.089 90.5897C151.059 62.1874 143.117 37.5159 127.035 15.6447ZM53.8846 75.6256C46.8679 75.6256 41.0864 69.6695 41.0864 62.3547C41.0864 55.0399 46.7558 49.0834 53.8846 49.0834C61.0691 49.0834 66.7946 55.0917 66.6825 62.3543C66.6825 69.6695 61.0129 75.6256 53.8846 75.6256ZM101.203 75.6256C94.1867 75.6256 88.4052 69.6695 88.4052 62.3547C88.4052 55.0399 94.0746 49.0834 101.203 49.0834C108.388 49.0834 114.113 55.0917 114.001 62.3543C114.001 69.6695 108.388 75.6256 101.203 75.6256Z" fill="#272635"/>
</svg>
