<svg width="186" height="166" viewBox="0 0 186 166" fill="none" xmlns="http://www.w3.org/2000/svg">
<path d="M177.493 40.23C175.465 32.5623 169.489 26.5234 161.901 24.474C148.148 20.75 93 20.75 93 20.75C93 20.75 37.8523 20.75 24.0989 24.474C16.5114 26.5237 10.5355 32.5623 8.50724 40.23C4.82211 54.1283 4.82211 83.1258 4.82211 83.1258C4.82211 83.1258 4.82211 112.123 8.50724 126.022C10.5355 133.689 16.5114 139.477 24.0989 141.526C37.8523 145.25 93 145.25 93 145.25C93 145.25 148.148 145.25 161.901 141.526C169.489 139.477 175.465 133.689 177.493 126.022C181.178 112.123 181.178 83.1258 181.178 83.1258C181.178 83.1258 181.178 54.1283 177.493 40.23ZM74.9635 109.453V56.7983L121.056 83.1264L74.9635 109.453Z" fill="#272635"/>
</svg>
